<svg xmlns="http://www.w3.org/2000/svg" width="1000" height="385.296"><path d="M156.95 217.858c0 31.898-17.636 53.06-44.77 53.06-12.56 0-22.833-5.445-29.67-15.129v13.985H51.416V125.597H82.51v53.246c6.837-9.529 16.707-14.974 28.959-14.974 27.32 0 45.48 21.564 45.48 53.989m-31.279-.929c0-15.933-8.818-27.195-21.781-27.195-12.561 0-21.38 11.262-21.38 27.195 0 16.274 8.819 27.382 21.38 27.382 12.963-.031 21.781-11.262 21.781-27.382m79.978-81.989c0 10.49-6.838 17.884-16.336 17.884-9.56 0-16.367-7.364-16.367-17.883 0-10.303 6.838-17.666 16.367-17.666s16.336 7.363 16.336 17.666m-31.991 30.104h30.939v104.729h-30.94v-104.73zm118.496 99.035c-7.023 4.487-16.552 7.24-25.896 7.24-18.687 0-32.176-11.447-32.176-33.197v-46.254h-13.49v-21.967h13.52v-29.145h30.909v28.96h25.339v22.152h-25.37v40.994c0 8.168 3.218 11.664 8.972 11.417 3.249 0 7.395-1.33 12.067-3.496l6.125 23.297zm539.703-63.672v68.716H800.08v-59.001c0-12.933-6.652-20.822-17.17-20.822-12.098.402-19.462 11.107-19.462 25.834v53.958h-31.99v-58.97c0-12.933-6.467-20.822-16.986-20.822-12.252.402-19.832 11.107-19.832 25.834v53.958h-31.775V160.187h31.775v18.007c6.837-12.933 18.316-19.4 32.888-19.616 16.243 0 28.278 9.282 33.29 24.659 6.467-16.181 18.688-24.473 35.116-24.659 21.874 0 35.92 16.398 35.92 41.83m116.611 23.668h-70.108c3.187 12.933 11.664 20.173 23.514 20.173 8.632 0 17.171-3.837 23.854-11.107l16.831 18.006c-10.148 12.128-25.154 19.151-43.439 19.151-32.517 0-52.875-22.214-52.875-55.35 0-33.754 21.132-56.03 52.01-56.03 35.053.061 52.38 25.339 50.213 65.157m-30.691-18.81c0-13.335-7.766-21.998-19.213-21.998-11.046 0-18.688 8.88-20.699 21.997h39.912zm-488.158 119.95c-71.531-26.36-109.06-103.77-85.454-176.322 24.102-74.068 103.987-114.722 178.086-90.62C597.09 82.715 637 162.105 612.868 236.359c-11.725 35.92-36.693 65.096-70.262 82.175-33.631 17.109-71.903 20.11-107.792 8.384a53.775 53.775 0 01-5.198-1.702m93.59-253.793c-1.577-.588-3.124-1.114-4.67-1.64C450.808 47.723 377.7 84.88 355.64 152.638c-22.122 67.88 14.324 140.587 82.855 162.833 32.826 10.705 67.818 7.982 98.603-7.673 30.722-15.655 53.555-42.294 64.26-75.151a128.79 128.79 0 00-78.152-161.224" fill="#294d9a"/><path d="M407.185 105.734c-4.424 13.52-18.873 20.884-32.362 16.49-13.49-4.393-20.853-18.872-16.46-32.33 4.394-13.49 18.873-20.854 32.363-16.46 13.458 4.331 20.853 18.81 16.46 32.3m81.709 73.388c3.466-4.92 5.198-9.653 5.198-14.201 0-4.58-1.516-8.385-4.517-11.479-3.032-3.094-6.868-4.61-11.571-4.61-8.632 0-16.831 6.157-24.566 18.44l-24.535-14.541c6.436-9.932 13.459-17.45 21.132-22.555 7.642-5.136 17.357-7.673 29.237-7.673 11.85 0 22.277 3.775 31.218 11.293 8.941 7.55 13.49 17.76 13.49 30.723 0 7.085-1.857 13.83-5.446 20.327-3.589 6.497-10.24 14.758-19.925 24.875L473.86 235.4h54.205v27.504h-96.808v-22.833l40.252-41.242c8.137-8.23 13.922-14.789 17.387-19.708zm48.977 109.432c-1.145-1.145-.835-2.476.68-3.002l51.422-17.325c1.547-.557 2.32.309 1.856 1.825l-17.543 51.42c-.556 1.548-1.887 1.857-3.032.681l-33.383-33.6z" fill="#294d9a"/></svg>